Coordinates
version=1
nRows=21
nColumns=22
inDegrees=yes

Units are S.I. units (second, meters, Newtons, ...)
If the header above contains a line with 'inDegrees', this indicates whether rotational values are in degrees (yes) or radians (no).

endheader
time	pelvis_tilt	pelvis_list	pelvis_rotation	pelvis_tx	pelvis_ty	pelvis_tz	hip_flexion_r	hip_adduction_r	hip_rotation_r	knee_angle_r	ankle_angle_r	subtalar_angle_r	hip_flexion_l	hip_adduction_l	hip_rotation_l	knee_angle_l	ankle_angle_l	subtalar_angle_l	lumbar_extension	lumbar_bending	lumbar_rotation
      1.00000000	    -19.28963188	      6.87473007	    -21.11325064	     -1.26172102	      0.95171272	     -0.32977660	     57.28407398	      2.98685816	      2.60312653	    -64.53170881	     25.18085272	     -6.38933884	     20.22803274	      3.29040203	     -4.06394890	    -17.38747079	     25.62218284	     -5.43423429	     -5.73139891	     -0.62640179	     -0.56301533
      1.01000000	    -19.33221333	      7.08179065	    -20.93888164	     -1.25614288	      0.95084998	     -0.32802115	     58.18838593	      2.67923961	      2.56945549	    -64.27597668	     24.99663911	     -6.14604587	     19.50367397	      3.52623290	     -4.19758599	    -16.48635054	     25.67502878	     -5.15675631	     -6.07467457	     -0.83515623	     -0.80608969
      1.02000000	    -19.31638981	      7.29702308	    -20.80138998	     -1.25023913	      0.94987469	     -0.32607408	     58.97569600	      2.33939229	      2.53155759	    -63.86205643	     24.76696931	     -5.78655231	     18.67466925	      3.78477470	     -4.35015564	    -15.53911663	     25.76864989	     -4.80057663	     -6.44474334	     -1.08190549	     -0.99094631
      1.03000000	    -19.27249892	      7.55728958	    -20.66269655	     -1.24400379	      0.94870248	     -0.32400197	     59.68874263	      1.92852390	      2.49628849	    -63.29973194	     24.43599602	     -5.54438724	     17.79956937	      4.10473310	     -4.49492295	    -14.56940640	     25.80876535	     -4.57350612	     -6.78974284	     -1.38726363	     -1.18707429
      1.04000000	    -19.11240646	      7.82103127	    -20.64335047	     -1.23734550	      0.94747325	     -0.32156020	     60.21813778	      1.55369098	      2.51779965	    -62.59281712	     24.07532056	     -5.13879113	     16.74105929	      4.44375816	     -4.72889254	    -13.53486075	     25.91266573	     -4.28054858	     -7.20928541	     -1.75509709	     -1.22762810
      1.05000000	    -18.88127499	      8.11162733	    -20.69607300	     -1.23030825	      0.94610768	     -0.31878443	     60.61967423	      1.18408493	      2.57509839	    -61.75355031	     23.64328878	     -4.68207726	     15.58140411	      4.82192681	     -5.00931087	    -12.47983726	     26.00116163	     -4.02536989	     -7.64433584	     -2.19920161	     -1.20739764
      1.06000000	    -18.57281215	      8.40789934	    -20.81382277	     -1.22289575	      0.94463284	     -0.31571175	     60.87611597	      0.82444141	      2.65260531	    -60.78762825	     23.18349730	     -4.12437681	     14.32053673	      5.22738963	     -5.31056432	    -11.42715142	     26.10076303	     -3.79404340	     -8.11427475	     -2.69329485	     -1.12084305
      1.07000000	    -18.22374565	      8.68575039	    -20.93399057	     -1.21516278	      0.94303405	     -0.31249274	     61.01054859	      0.44256929	      2.68710067	    -59.70327107	     22.70665660	     -3.43804964	     13.02773039	      5.64016140	     -5.56600140	    -10.44214358	     26.22246618	     -3.58805910	     -8.60395179	     -3.18244047	     -1.02988938
      1.08000000	    -17.88624761	      8.91451508	    -20.96848757	     -1.20720321	      0.94130081	     -0.30929120	     61.05453826	     -0.00132170	      2.60238940	    -58.50782376	     22.20778931	     -2.59244333	     11.79289695	      6.02142777	     -5.68805743	     -9.60659385	     26.38690302	     -3.41035023	     -9.09347535	     -3.60251623	     -1.01474093
      1.09000000	    -17.62844170	      9.07476833	    -20.82883757	     -1.19910561	      0.93940050	     -0.30630329	     61.05694398	     -0.54990987	      2.32571765	    -57.21086881	     21.65870125	     -1.54225085	     10.72773432	      6.33182321	     -5.61131952	     -9.00852370	     26.60817992	     -3.27031122	     -9.53965358	     -3.88445689	     -1.15749751
      1.10000000	    -17.47972952	      9.14989481	    -20.43861525	     -1.19090041	      0.93732976	     -0.30368897	     61.03023470	     -1.25459114	      1.78611999	    -55.83821288	     21.08706945	     -0.44669037	      9.88197735	      6.54879462	     -5.23951524	     -8.69762208	     26.95715412	     -3.18186753	     -9.93448237	     -3.98250962	     -1.50123840
      1.11000000	    -17.50207321	      9.13898848	    -19.77317812	     -1.18266575	      0.93505724	     -0.30148921	     61.02555122	     -2.10281738	      0.97310898	    -54.41172378	     20.40312930	      0.78917879	      9.34667171	      6.64003776	     -4.61213119	     -8.72075795	     27.37253569	     -3.14358800	    -10.21435572	     -3.86503948	     -2.08089801
      1.12000000	    -17.68477112	      9.03079717	    -18.86403573	     -1.17436429	      0.93261069	     -0.29962879	     61.02020197	     -3.06045673	     -0.10989126	    -52.96522976	     19.59743067	      1.99513221	      9.09836692	      6.59547276	     -3.73754784	     -9.06405937	     27.89067297	     -3.14154346	    -10.37899923	     -3.52914058	     -2.85671150
      1.13000000	    -17.99048598	      8.82667562	    -17.81494927	     -1.16591133	      0.93003267	     -0.29788383	     60.97926771	     -4.03986222	     -1.39765377	    -51.54195306	     18.65878990	      3.11418986	      9.06548535	      6.42053071	     -2.72172491	     -9.66168617	     28.48108493	     -3.15372014	    -10.42978976	     -3.00823605	     -3.74051033
      1.14000000	    -18.35526623	      8.55331804	    -16.75447498	     -1.15721950	      0.92737685	     -0.29598818	     60.86731973	     -4.95331820	     -2.79079979	    -50.19578665	     17.61630867	      4.08081493	      9.15529074	      6.14943187	     -1.70732733	    -10.44476209	     29.12446645	     -3.16225914	    -10.39616920	     -2.37577420	     -4.63215708
      1.15000000	    -18.71815040	      8.22364790	    -15.79461933	     -1.14820037	      0.92472821	     -0.29368507	     60.64049125	     -5.70880090	     -4.19417297	    -48.96718787	     16.48452852	      4.83750814	      9.26957159	      5.79815039	     -0.75945522	    -11.34730529	     29.75323713	     -3.14093846	    -10.31781101	     -1.69338398	     -5.41086083
      1.16000000	    -19.01050038	      7.83319512	    -14.99793967	     -1.13878138	      0.92220003	     -0.29083942	     60.23704488	     -6.25518872	     -5.56206691	    -47.88672766	     15.34757897	      5.23284365	      9.31155757	      5.36926228	      0.05973559	    -12.32774555	     30.34828623	     -3.08913884	    -10.27014432	     -0.98521537	     -6.02961067
      1.17000000	    -19.32699754	      7.46579868	    -14.31819978	     -1.12907614	      0.91959266	     -0.28754702	     59.81441382	     -6.64649778	     -6.82765616	    -47.01373175	     14.33234232	      5.44577536	      9.44402222	      4.92608845	      0.75307213	    -13.45863825	     30.90793125	     -2.98202636	    -10.12848568	     -0.31258546	     -6.55825996
      1.18000000	    -19.62255092	      7.07736651	    -13.77598266	     -1.11906487	      0.91705779	     -0.28379547	     59.30566511	     -6.84920790	     -8.00735807	    -46.33885062	     13.50694463	      5.25517111	      9.58926940	      4.43852765	      1.36075030	    -14.70839779	     31.37714422	     -2.77561488	     -9.97010494	      0.36181386	     -6.92532407
      1.19000000	    -19.90629033	      6.67182079	    -13.35382227	     -1.10881260	      0.91462635	     -0.27963838	     58.73268379	     -6.87033948	     -9.07746605	    -45.86269283	     12.96082856	      4.58963785	      9.77284512	      3.91462877	      1.91941521	    -16.10287621	     31.72784200	     -2.45459315	     -9.80197088	      1.03820072	     -7.13527738
      1.20000000	    -20.18188185	      6.26059660	    -13.02598286	     -1.09840478	      0.91233748	     -0.27514950	     58.11562485	     -6.72994924	     -9.99386205	    -45.57354947	     12.81182319	      3.60748257	     10.04023990	      3.37353194	      2.44584470	    -17.70632172	     31.91879630	     -2.06657385	     -9.63670735	      1.70827825	     -7.23444129
